<svg width="20" height="20" fill="none" xmlns="http://www.w3.org/2000/svg"><path d="M10 0C4.486 0 0 4.486 0 10s4.486 10 10 10 10-4.486 10-10S15.514 0 10 0zm0 19.23C4.91 19.23.77 15.09.77 10 .77 4.91 4.91.77 10 .77c5.09 0 9.23 4.14 9.23 9.23 0 5.09-4.14 9.23-9.23 9.23z" fill="#000"/><path d="M13.733 6.267a.384.384 0 00-.543 0L10 9.457l-3.19-3.19a.384.384 0 10-.544.543L9.456 10l-3.19 3.19a.384.384 0 10.544.543l3.19-3.19 3.19 3.19a.384.384 0 10.543-.543L10.543 10l3.19-3.19a.384.384 0 000-.543z" fill="#000"/></svg>