<svg width="50" height="48" fill="none" xmlns="http://www.w3.org/2000/svg"><path d="M48.915 21.758a3.564 3.564 0 00.907-3.675 3.564 3.564 0 00-2.896-2.441l-12.106-1.76a1.581 1.581 0 01-1.192-.865l-5.412-10.97A3.564 3.564 0 0025 .048a3.564 3.564 0 00-3.215 1.999l-5.413 10.97c-.23.467-.677.79-1.193.866l-12.106 1.76a3.561 3.561 0 00-2.895 2.44 3.564 3.564 0 00.907 3.675l8.76 8.539c.373.364.544.889.456 1.401L8.234 43.756a3.563 3.563 0 001.426 3.506 3.556 3.556 0 003.776.273l10.827-5.693a1.585 1.585 0 011.474 0l10.828 5.693a3.572 3.572 0 003.776-.273 3.563 3.563 0 001.426-3.506L39.7 31.699a1.584 1.584 0 01.456-1.401l8.76-8.54zm-11.189 10.28l2.068 12.056a1.555 1.555 0 01-.63 1.549 1.56 1.56 0 01-1.667.121L26.669 40.07a3.592 3.592 0 00-3.338.001l-10.826 5.693a1.56 1.56 0 01-1.668-.121 1.556 1.556 0 01-.63-1.549l2.068-12.056a3.586 3.586 0 00-1.032-3.174l-8.76-8.54a1.552 1.552 0 01-.4-1.622c.19-.587.667-.99 1.277-1.079l12.105-1.759a3.581 3.581 0 002.7-1.961l5.414-10.97A1.553 1.553 0 0125 2.05c.617 0 1.147.33 1.42.882l5.414 10.97a3.579 3.579 0 002.7 1.961l12.106 1.76a1.55 1.55 0 011.277 1.078c.19.585.042 1.192-.4 1.623l-8.76 8.538a3.584 3.584 0 00-1.03 3.175z" fill="#fff"/></svg>